<svg width="125" height="49" viewBox="0 0 125 49" fill="none" xmlns="http://www.w3.org/2000/svg">
<path d="M15.82 35.21C13.84 35.21 12.02 34.75 10.36 33.83C8.72 32.91 7.41 31.63 6.43 29.99C5.47 28.33 4.99 26.47 4.99 24.41C4.99 22.35 5.47 20.5 6.43 18.86C7.41 17.22 8.72 15.94 10.36 15.02C12.02 14.1 13.84 13.64 15.82 13.64C17.8 13.64 19.61 14.1 21.25 15.02C22.91 15.94 24.21 17.22 25.15 18.86C26.11 20.5 26.59 22.35 26.59 24.41C26.59 26.47 26.11 28.33 25.15 29.99C24.19 31.63 22.89 32.91 21.25 33.83C19.61 34.75 17.8 35.21 15.82 35.21ZM15.82 30.53C17.5 30.53 18.84 29.97 19.84 28.85C20.86 27.73 21.37 26.25 21.37 24.41C21.37 22.55 20.86 21.07 19.84 19.97C18.84 18.85 17.5 18.29 15.82 18.29C14.12 18.29 12.76 18.84 11.74 19.94C10.74 21.04 10.24 22.53 10.24 24.41C10.24 26.27 10.74 27.76 11.74 28.88C12.76 29.98 14.12 30.53 15.82 30.53ZM54.044 13.94V35H48.914V22.37L44.204 35H40.064L35.324 22.34V35H30.194V13.94H36.254L42.164 28.52L48.014 13.94H54.044ZM71.233 24.2C72.453 24.46 73.433 25.07 74.173 26.03C74.913 26.97 75.283 28.05 75.283 29.27C75.283 31.03 74.663 32.43 73.423 33.47C72.203 34.49 70.493 35 68.293 35H58.483V13.94H67.963C70.103 13.94 71.773 14.43 72.973 15.41C74.193 16.39 74.803 17.72 74.803 19.4C74.803 20.64 74.473 21.67 73.813 22.49C73.173 23.31 72.313 23.88 71.233 24.2ZM63.613 22.46H66.973C67.813 22.46 68.453 22.28 68.893 21.92C69.353 21.54 69.583 20.99 69.583 20.27C69.583 19.55 69.353 19 68.893 18.62C68.453 18.24 67.813 18.05 66.973 18.05H63.613V22.46ZM67.393 30.86C68.253 30.86 68.913 30.67 69.373 30.29C69.853 29.89 70.093 29.32 70.093 28.58C70.093 27.84 69.843 27.26 69.343 26.84C68.863 26.42 68.193 26.21 67.333 26.21H63.613V30.86H67.393ZM89.7484 35L85.3684 27.05H84.1384V35H79.0084V13.94H87.6184C89.2784 13.94 90.6884 14.23 91.8484 14.81C93.0284 15.39 93.9084 16.19 94.4884 17.21C95.0684 18.21 95.3584 19.33 95.3584 20.57C95.3584 21.97 94.9584 23.22 94.1584 24.32C93.3784 25.42 92.2184 26.2 90.6784 26.66L95.5384 35H89.7484ZM84.1384 23.42H87.3184C88.2584 23.42 88.9584 23.19 89.4184 22.73C89.8984 22.27 90.1384 21.62 90.1384 20.78C90.1384 19.98 89.8984 19.35 89.4184 18.89C88.9584 18.43 88.2584 18.2 87.3184 18.2H84.1384V23.42ZM104.459 18.05V22.31H111.329V26.27H104.459V30.89H112.229V35H99.3288V13.94H112.229V18.05H104.459Z" fill="#F2F2F2"/>
<path d="M16.3237 39.4686L12.4277 41.343C12.2667 41.4205 12.0801 41.3032 12.0801 41.1245V36.646C12.0801 36.4673 12.2667 36.35 12.4277 36.4275L16.3237 38.3019L20.2196 36.4275C20.3806 36.35 20.5672 36.4673 20.5672 36.646V41.1245C20.5672 41.3032 20.3806 41.4205 20.2196 41.343L16.3237 39.4686Z" fill="#F2F2F2"/>
<path d="M23.6422 12.951L19.3781 12.237C19.2019 12.2075 19.117 12.0041 19.22 11.8581L21.8015 8.1984C21.9044 8.05241 22.1246 8.06412 22.2115 8.22021L24.3146 11.9976L28.5787 12.7116C28.7549 12.7411 28.8398 12.9445 28.7368 13.0905L26.1553 16.7502C26.0524 16.8962 25.8322 16.8845 25.7453 16.7284L23.6422 12.951Z" fill="#F2F2F2"/>
<path d="M114.144 12.8281L112.08 11.1105L115.114 7.51936L118.077 4L120.125 5.72064L114.144 12.8281Z" fill="#F2F2F2"/>
</svg>
